{"title":"Avengers Age of Ultron 2015 Official Trailer 720p HD - M.S.K","uid":11269728,"size":32488017,"categoryP":"video","categoryS":"other","magnet":"?xt=urn:btih:d87a73f80c76d0ea1e753bbdcc71a0b7645f2187&amp;dn=Avengers+Age+of+Ultron+2015+Official+Trailer+720p+HD+-+M.S.K&amp;tr=udp%3A%2F%2Ftracker.openbittorrent.com%3A80&amp;tr=udp%3A%2F%2Fopen.demonii.com%3A1337&amp;tr=udp%3A%2F%2Ftracker.coppersurfer.tk%3A6969&amp;tr=udp%3A%2F%2Fexodus.desync.com%3A6969","seeders":8,"leechers":0,"uploader":"m.s.k","files":1,"time":1414024403,"description":":Screenshots: &lt;a href=&quot;\nhttp://i.imgur.com/2NGrXOF.png&quot; rel=&quot;nofollow&quot; target=&quot;_NEW&quot;&gt;\nhttp://i.imgur.com/2NGrXOF.png&lt;/a&gt; &lt;a href=&quot;\nhttp://i.imgur.com/xZfo96h.jpg&quot; rel=&quot;nofollow&quot; target=&quot;_NEW&quot;&gt;\nhttp://i.imgur.com/xZfo96h.jpg&lt;/a&gt; &lt;a href=&quot;\nhttp://i.imgur.com/a8LJeqg.png&quot; rel=&quot;nofollow&quot; target=&quot;_NEW&quot;&gt;\nhttp://i.imgur.com/a8LJeqg.png&lt;/a&gt; &lt;a href=&quot;\nhttp://i.imgur.com/z2ggIqk.png&quot; rel=&quot;nofollow&quot; target=&quot;_NEW&quot;&gt;\nhttp://i.imgur.com/z2ggIqk.png&lt;/a&gt; &lt;a href=&quot;\nhttp://i.imgur.com/61tacgJ.png&quot; rel=&quot;nofollow&quot; target=&quot;_NEW&quot;&gt;\nhttp://i.imgur.com/61tacgJ.png&lt;/a&gt;\n\n:Media Info:\nGeneral \nComplete name : Avengers Age of Ultron 2015 Official Trailer 720p HD - M.S.K.mp4 \nFormat : MPEG-4 \nFormat profile : Base Media / Version 2 \nCodec ID : mp42 \nFile size : 31.0 MiB \nDuration : 2mn 16s \nOverall bit rate mode : Variable \nOverall bit rate : 1 905 Kbps \n\nVideo \nID : 1 \nFormat : AVC \nFormat/Info : Advanced Video Codec \nFormat profile : &lt;a class=&quot;__cf_email__&quot; href=&quot;/cdn-cgi/l/email-protection&quot; data-cfemail=&quot;baf2d3ddd2faf689948b&quot;&gt;[email&amp;#160;protected]&lt;/a&gt;&lt;script cf-hash='f9e31' type=&quot;text/javascript&quot;&gt;\n/* &lt;![CDATA[ */!function(){try{var t=&quot;currentScript&quot;in document?document.currentScript:function(){for(var t=document.getElementsByTagName(&quot;script&quot;),e=t.length;e--;)if(t[e].getAttribute(&quot;cf-hash&quot;))return t[e]}();if(t&amp;&amp;t.previousSibling){var e,r,n,i,c=t.previousSibling,a=c.getAttribute(&quot;data-cfemail&quot;);if(a){for(e=&quot;&quot;,r=parseInt(a.substr(0,2),16),n=2;a.length-n;n+=2)i=parseInt(a.substr(n,2),16)^r,e+=String.fromCharCode(i);e=document.createTextNode(e),c.parentNode.replaceChild(e,c)}}}catch(u){}}();/* ]]&gt; */&lt;/script&gt; \nFormat settings, CABAC : Yes \nFormat settings, ReFrames : 1 frame \nCodec ID : avc1 \nCodec ID/Info : Advanced Video Coding \nDuration : 2mn 16s \nBit rate : 1 711 Kbps \nMaximum bit rate : 5 073 Kbps \nWidth : 1 280 pixels \nHeight : 534 pixels \nDisplay aspect ratio : 2.40:1 \nFrame rate mode : Constant \nFrame rate : 23.976 fps \nColor space : YUV \nChroma subsampling : 4:2:0 \nBit depth : 8 bits \nScan type : Progressive \nBits/(Pixel*Frame) : 0.104 \nStream size : 27.8 MiB (90%) \nTagged date : UTC 2014-10-23 01:11:27 \n\nAudio \nID : 2 \nFormat : AAC \nFormat/Info : Advanced Audio Codec \nFormat profile : LC \nCodec ID : 40 \nDuration : 2mn 16s \nBit rate mode : Variable \nBit rate : 192 Kbps \nMaximum bit rate : 201 Kbps \nChannel(s) : 2 channels \nChannel positions : Front: L R \nSampling rate : 44.1 KHz \nCompression mode : Lossy \nStream size : 3.12 MiB (10%)","torrent":{"xt":"urn:btih:d87a73f80c76d0ea1e753bbdcc71a0b7645f2187","amp;dn":"Avengers+Age+of+Ultron+2015+Official+Trailer+720p+HD+-+M.S.K","amp;tr":["udp%3A%2F%2Ftracker.openbittorrent.com%3A80","udp%3A%2F%2Fopen.demonii.com%3A1337","udp%3A%2F%2Ftracker.coppersurfer.tk%3A6969","udp%3A%2F%2Fexodus.desync.com%3A6969"],"infoHash":"d87a73f80c76d0ea1e753bbdcc71a0b7645f2187","infoHashBuffer":{"type":"Buffer","data":[216,122,115,248,12,118,208,234,30,117,59,189,204,113,160,183,100,95,33,135]},"announce":[],"urlList":[]}}